<?xml version="1.0" encoding="UTF-8" standalone="no"?>
<!DOCTYPE svg PUBLIC "-//W3C//DTD SVG 1.1//EN" "http://www.w3.org/Graphics/SVG/1.1/DTD/svg11.dtd">
<!-- Created with Vectornator (http://vectornator.io/) -->
<svg height="100%" stroke-miterlimit="10" style="fill-rule:nonzero;clip-rule:evenodd;stroke-linecap:round;stroke-linejoin:round;" version="1.1" viewBox="0 0 239 239" width="100%" xml:space="preserve" xmlns="http://www.w3.org/2000/svg" xmlns:vectornator="http://vectornator.io" xmlns:xlink="http://www.w3.org/1999/xlink">
<defs/>
<g id="Layer-1" vectornator:layerName="Layer 1">
<g opacity="1" vectornator:layerName="g">
<path d="M13.5179 118.979C13.5179 60.814 60.921 13.662 119.396 13.662C177.87 13.662 225.273 60.814 225.273 118.979C225.273 177.144 177.87 224.296 119.396 224.296C60.921 224.296 13.5179 177.144 13.5179 118.979Z" fill="#0284c7" fill-rule="nonzero" opacity="1" stroke="none" vectornator:layerName="path"/>
<path d="M106.328 156.762L128.885 132.599L160.909 145.337L158.144 177.372L124.411 184.434L106.328 156.762Z" fill="#16a34a" fill-rule="nonzero" opacity="1" stroke="none" vectornator:layerName="path"/>
<path d="M39.0857 51.0416L109.985 8.36076C116.599 4.37926 124.934 6.09206 128.603 12.1864L145.567 40.3657C149.236 46.4599 146.848 54.6279 140.234 58.609L69.335 101.29C62.721 105.272 54.3855 103.559 50.7168 97.465L33.7531 69.285C30.0844 63.191 32.4719 55.023 39.0857 51.0416Z" fill="#16a34a" fill-rule="nonzero" opacity="1" stroke="none" vectornator:layerName="path"/>
<path d="M25.3736 71.278L70.717 103.665C73.076 105.35 74.256 106.193 75.491 106.387C76.577 106.558 77.689 106.386 78.673 105.895C79.792 105.336 80.662 104.176 82.401 101.857L91.983 89.082C92.475 88.426 92.721 88.098 93.01 87.815C93.266 87.564 93.548 87.339 93.85 87.145C94.191 86.926 94.565 86.76 95.314 86.427L136.222 68.246C137.918 67.492 138.765 67.115 139.405 66.527C139.971 66.006 140.416 65.369 140.71 64.658C141.042 63.855 141.103 62.93 141.227 61.078L144.223 16.1493M135.6 134.905L147.613 140.053L163.263 146.76C166.472 148.136 168.077 148.824 168.928 149.966C169.673 150.969 170.04 152.203 169.963 153.449C169.875 154.871 168.906 156.324 166.969 159.228L153.973 178.723C153.055 180.1 152.596 180.788 151.99 181.287C151.452 181.728 150.834 182.059 150.169 182.261C149.418 182.49 148.59 182.49 146.935 182.49L125.836 182.49C123.644 182.49 122.548 182.49 121.615 182.123C120.791 181.799 120.062 181.274 119.494 180.595C118.851 179.826 118.504 178.785 117.811 176.706L110.273 154.091C109.864 152.864 109.66 152.25 109.606 151.627C109.558 151.074 109.597 150.517 109.723 149.977C109.865 149.368 110.153 148.789 110.732 147.632L116.458 136.181C117.621 133.853 118.203 132.69 119.099 131.968C119.888 131.331 120.845 130.936 121.853 130.827C122.997 130.704 124.231 131.115 126.699 131.938L135.6 134.905ZM225.482 119.044C225.482 177.444 178.139 224.787 119.739 224.787C61.339 224.787 13.9958 177.444 13.9958 119.044C13.9958 60.643 61.339 13.3006 119.739 13.3006C178.139 13.3006 225.482 60.643 225.482 119.044Z" fill="none" opacity="1" stroke="#1e293b" stroke-linecap="round" stroke-linejoin="round" stroke-width="18" vectornator:layerName="path"/>
</g>
</g>
</svg>
