<?xml version="1.0" encoding="UTF-8" standalone="no"?>
<!DOCTYPE svg PUBLIC "-//W3C//DTD SVG 1.1//EN" "http://www.w3.org/Graphics/SVG/1.1/DTD/svg11.dtd">
<!-- Created with Vectornator (http://vectornator.io/) -->
<svg height="100%" stroke-miterlimit="10" style="fill-rule:nonzero;clip-rule:evenodd;stroke-linecap:round;stroke-linejoin:round;" version="1.1" viewBox="0 0 320 320" width="100%" xml:space="preserve" xmlns="http://www.w3.org/2000/svg" xmlns:vectornator="http://vectornator.io" xmlns:xlink="http://www.w3.org/1999/xlink">
<defs/>
<g id="Layer-1" vectornator:layerName="Layer 1">
<g opacity="1">
<path d="M54.0179 163.479C54.0179 105.314 101.421 58.162 159.896 58.162C218.37 58.162 265.773 105.314 265.773 163.479C265.773 221.644 218.37 268.796 159.896 268.796C101.421 268.796 54.0179 221.644 54.0179 163.479Z" fill="#0284c7" fill-rule="nonzero" opacity="1" stroke="none"/>
<path d="M146.828 201.262L169.385 177.099L201.409 189.837L198.644 221.872L164.911 228.934L146.828 201.262Z" fill="#16a34a" fill-rule="nonzero" opacity="1" stroke="none"/>
<path d="M79.5857 95.5416L150.485 52.8608C157.099 48.8793 165.434 50.5921 169.103 56.6864L186.067 84.8657C189.736 90.9599 187.348 99.1279 180.734 103.109L109.835 145.79C103.221 149.772 94.8855 148.059 91.2168 141.965L74.2531 113.785C70.5844 107.691 72.9719 99.523 79.5857 95.5416Z" fill="#16a34a" fill-rule="nonzero" opacity="1" stroke="none"/>
<path d="M65.8736 115.778L111.217 148.165C113.576 149.85 114.756 150.693 115.991 150.887C117.077 151.058 118.189 150.886 119.173 150.395C120.292 149.836 121.162 148.676 122.901 146.357L132.483 133.582C132.975 132.926 133.221 132.598 133.51 132.315C133.766 132.064 134.048 131.839 134.35 131.645C134.691 131.426 135.065 131.26 135.814 130.927L176.722 112.746C178.418 111.992 179.265 111.615 179.905 111.027C180.471 110.506 180.916 109.869 181.21 109.158C181.542 108.355 181.603 107.43 181.727 105.578L184.723 60.6493M176.1 179.405L188.113 184.553L203.763 191.26C206.972 192.636 208.577 193.324 209.428 194.466C210.173 195.469 210.54 196.703 210.463 197.949C210.375 199.371 209.406 200.824 207.469 203.728L194.473 223.223C193.555 224.6 193.096 225.288 192.49 225.787C191.952 226.228 191.334 226.559 190.669 226.761C189.918 226.99 189.09 226.99 187.435 226.99L166.336 226.99C164.144 226.99 163.048 226.99 162.115 226.623C161.291 226.299 160.562 225.774 159.994 225.095C159.351 224.326 159.004 223.285 158.311 221.206L150.773 198.591C150.364 197.364 150.16 196.75 150.106 196.127C150.058 195.574 150.097 195.017 150.223 194.477C150.365 193.868 150.653 193.289 151.232 192.132L156.958 180.681C158.121 178.353 158.703 177.19 159.599 176.468C160.388 175.831 161.345 175.436 162.353 175.327C163.497 175.204 164.731 175.615 167.199 176.438L176.1 179.405ZM265.982 163.544C265.982 221.944 218.639 269.287 160.239 269.287C101.839 269.287 54.4958 221.944 54.4958 163.544C54.4958 105.143 101.839 57.8006 160.239 57.8006C218.639 57.8006 265.982 105.143 265.982 163.544Z" fill="none" opacity="1" stroke="#1e293b" stroke-linecap="round" stroke-linejoin="round" stroke-width="18" vectornator:layerName="path"/>
</g>
</g>
</svg>
