<?xml version="1.0" encoding="UTF-8" standalone="no"?>
<!DOCTYPE svg PUBLIC "-//W3C//DTD SVG 1.1//EN" "http://www.w3.org/Graphics/SVG/1.1/DTD/svg11.dtd">
<!-- Created with Vectornator (http://vectornator.io/) -->
<svg height="100%" stroke-miterlimit="10" style="fill-rule:nonzero;clip-rule:evenodd;stroke-linecap:round;stroke-linejoin:round;" version="1.1" viewBox="0 0 1381.4 425.739" width="100%" xml:space="preserve" xmlns="http://www.w3.org/2000/svg" xmlns:vectornator="http://vectornator.io" xmlns:xlink="http://www.w3.org/1999/xlink">
<defs/>
<g id="Layer-1" vectornator:layerName="Layer 1">
<g opacity="1">
<path d="M63.6559 212.804C63.6559 154.64 111.059 107.488 169.534 107.488C228.008 107.488 275.411 154.64 275.411 212.804C275.411 270.969 228.008 318.121 169.534 318.121C111.059 318.121 63.6559 270.969 63.6559 212.804Z" fill="#0284c7" fill-rule="nonzero" opacity="1" stroke="none"/>
<path d="M156.466 250.588L179.023 226.424L211.047 239.162L208.282 271.198L174.549 278.259L156.466 250.588Z" fill="#16a34a" fill-rule="nonzero" opacity="1" stroke="none"/>
<path d="M89.2237 144.867L160.123 102.186C166.737 98.2049 175.073 99.9177 178.741 106.012L195.705 134.191C199.374 140.286 196.986 148.454 190.372 152.435L119.473 195.116C112.859 199.097 104.524 197.384 100.855 191.29L83.8912 163.111C80.2225 157.017 82.6099 148.849 89.2237 144.867Z" fill="#16a34a" fill-rule="nonzero" opacity="1" stroke="none"/>
<path d="M75.5116 165.103L120.855 197.491C123.214 199.176 124.394 200.018 125.629 200.213C126.715 200.384 127.828 200.211 128.811 199.72C129.93 199.162 130.8 198.002 132.539 195.682L142.121 182.907C142.613 182.251 142.859 181.923 143.148 181.64C143.404 181.389 143.686 181.165 143.988 180.971C144.329 180.752 144.703 180.586 145.452 180.252L186.36 162.071C188.056 161.318 188.903 160.941 189.543 160.352C190.109 159.832 190.554 159.194 190.848 158.484C191.18 157.681 191.241 156.755 191.365 154.904L194.361 109.975M185.738 228.731L197.751 233.879L213.401 240.586C216.61 241.961 218.215 242.65 219.066 243.792C219.811 244.794 220.178 246.028 220.101 247.275C220.013 248.696 219.044 250.149 217.107 253.054L204.111 272.549C203.194 273.925 202.734 274.614 202.128 275.113C201.59 275.554 200.972 275.885 200.307 276.087C199.556 276.315 198.728 276.315 197.073 276.315L175.974 276.315C173.782 276.315 172.686 276.315 171.753 275.948C170.929 275.625 170.2 275.099 169.632 274.42C168.989 273.652 168.642 272.611 167.949 270.531L160.411 247.917C160.002 246.689 159.798 246.076 159.744 245.453C159.696 244.9 159.735 244.343 159.861 243.802C160.003 243.193 160.291 242.615 160.87 241.458L166.596 230.006C167.759 227.679 168.341 226.515 169.237 225.793C170.026 225.157 170.983 224.761 171.991 224.652C173.135 224.53 174.369 224.941 176.837 225.764L185.738 228.731ZM275.62 212.869C275.62 271.269 228.277 318.612 169.877 318.612C111.477 318.612 64.1339 271.269 64.1339 212.869C64.1339 154.469 111.477 107.126 169.877 107.126C228.277 107.126 275.62 154.469 275.62 212.869Z" fill="none" opacity="1" stroke="#1e293b" stroke-linecap="round" stroke-linejoin="round" stroke-width="18" vectornator:layerName="path"/>
</g>
<g fill="#1e293b" opacity="1" stroke="none">
<path d="M358.602 233.767L358.602 215.686L379.403 215.686C383.617 215.686 387.169 214.853 390.06 213.187C392.951 211.521 395.168 209.218 396.712 206.278C398.255 203.338 399.027 199.982 399.027 196.209C399.027 192.338 398.255 188.932 396.712 185.992C395.168 183.052 392.951 180.774 390.06 179.157C387.169 177.54 383.617 176.731 379.403 176.731L358.602 176.731L358.602 158.65L377.712 158.65C386.728 158.65 394.397 160.12 400.718 163.06C407.039 166 411.865 170.19 415.197 175.629C418.529 181.068 420.195 187.536 420.195 195.033L420.195 197.385C420.195 204.784 418.529 211.215 415.197 216.678C411.865 222.142 407.039 226.356 400.718 229.32C394.397 232.285 386.728 233.767 377.712 233.767L358.602 233.767ZM340.668 266.695L340.668 158.65L361.542 158.65L361.542 266.695L340.668 266.695Z"/>
<path d="M436.806 266.695L436.806 159.385L457.239 159.385L457.239 266.695L436.806 266.695ZM426.81 174.673L426.81 159.385L457.239 159.385L457.239 174.673L426.81 174.673Z"/>
<path d="M528.902 266.695L528.902 243.028L525.521 243.028L525.521 216.715C525.521 212.158 524.394 208.74 522.14 206.462C519.886 204.183 516.431 203.044 511.776 203.044C509.326 203.044 506.386 203.093 502.956 203.191C499.526 203.289 496.072 203.412 492.593 203.559C489.114 203.706 486.002 203.877 483.258 204.073L483.258 186.727C485.512 186.531 488.048 186.347 490.865 186.176C493.683 186.004 496.598 185.882 499.612 185.808C502.625 185.735 505.455 185.698 508.101 185.698C516.284 185.698 523.107 186.788 528.571 188.969C534.034 191.149 538.15 194.543 540.919 199.149C543.687 203.755 545.072 209.782 545.072 217.23L545.072 266.695L528.902 266.695ZM503.177 268.753C497.395 268.753 492.335 267.736 487.999 265.703C483.662 263.669 480.294 260.729 477.893 256.883C475.492 253.036 474.291 248.418 474.291 243.028C474.291 237.197 475.724 232.407 478.591 228.659C481.457 224.91 485.512 222.117 490.755 220.28C495.998 218.442 502.148 217.524 509.204 217.524L527.726 217.524L527.726 229.725L508.91 229.725C504.255 229.725 500.678 230.864 498.179 233.142C495.68 235.421 494.43 238.398 494.43 242.073C494.43 245.699 495.68 248.626 498.179 250.856C500.678 253.085 504.255 254.2 508.91 254.2C511.752 254.2 514.385 253.686 516.811 252.657C519.236 251.628 521.245 249.876 522.838 247.401C524.43 244.927 525.325 241.509 525.521 237.148L530.519 242.881C530.029 248.467 528.681 253.171 526.476 256.993C524.271 260.815 521.233 263.731 517.362 265.74C513.491 267.749 508.763 268.753 503.177 268.753Z"/>
<path d="M566.975 266.695L566.975 186.874L583.145 186.874L583.145 221.125L581.675 221.125C581.675 213.04 582.74 206.278 584.872 200.839C587.003 195.4 590.213 191.296 594.5 188.528C598.788 185.759 604.092 184.375 610.413 184.375L611.295 184.375C620.85 184.375 628.078 187.45 632.978 193.599C637.878 199.749 640.328 208.9 640.328 221.052L640.328 266.695L619.895 266.695L619.895 219.214C619.895 214.314 618.486 210.345 615.668 207.307C612.851 204.269 608.992 202.75 604.092 202.75C599.094 202.75 595.064 204.306 592.001 207.417C588.939 210.529 587.408 214.657 587.408 219.802L587.408 266.695L566.975 266.695Z"/>
<path d="M697.952 269.488C691.092 269.488 685.089 268.312 679.944 265.96C674.799 263.608 670.536 260.46 667.155 256.515C663.774 252.571 661.226 248.149 659.511 243.249C657.796 238.349 656.939 233.326 656.939 228.181L656.939 225.388C656.939 220.096 657.796 214.988 659.511 210.063C661.226 205.139 663.762 200.729 667.118 196.833C670.475 192.938 674.664 189.839 679.687 187.536C684.709 185.233 690.504 184.081 697.07 184.081C705.694 184.081 712.909 185.98 718.715 189.777C724.522 193.575 728.907 198.524 731.872 204.624C734.836 210.725 736.319 217.303 736.319 224.359L736.319 231.783L665.612 231.783L665.612 219.288L723.456 219.288L717.209 225.388C717.209 220.292 716.461 215.931 714.967 212.305C713.472 208.679 711.243 205.886 708.278 203.926C705.314 201.966 701.578 200.986 697.07 200.986C692.513 200.986 688.666 202.027 685.53 204.11C682.394 206.192 680.03 209.157 678.437 213.003C676.845 216.85 676.049 221.468 676.049 226.858C676.049 231.905 676.82 236.364 678.364 240.235C679.907 244.106 682.296 247.132 685.53 249.312C688.764 251.493 692.905 252.583 697.952 252.583C702.901 252.583 706.943 251.579 710.079 249.57C713.215 247.561 715.224 245.111 716.106 242.22L734.922 242.22C733.795 247.659 731.553 252.436 728.197 256.552C724.84 260.668 720.602 263.853 715.481 266.107C710.361 268.361 704.518 269.488 697.952 269.488Z"/>
<path d="M787.989 267.724C780.639 267.724 774.588 266.769 769.835 264.858C765.082 262.947 761.541 259.725 759.214 255.192C756.886 250.66 755.723 244.523 755.723 236.781L755.796 164.383L774.906 164.383L774.833 238.03C774.833 241.95 775.886 244.964 777.993 247.071C780.1 249.178 783.114 250.231 787.034 250.231L799.529 250.231L799.529 267.724L787.989 267.724ZM743.081 201.868L743.081 186.874L799.529 186.874L799.529 201.868L743.081 201.868Z"/>
<path d="M866.708 269.488C856.957 269.488 848.614 267.785 841.681 264.38C834.747 260.974 829.1 256.515 824.739 251.003C820.378 245.49 817.169 239.512 815.111 233.069C813.053 226.625 812.024 220.39 812.024 214.363L812.024 211.129C812.024 204.514 813.077 197.96 815.184 191.468C817.291 184.975 820.537 179.083 824.923 173.791C829.308 168.499 834.907 164.261 841.718 161.076C848.529 157.891 856.589 156.298 865.899 156.298C875.601 156.298 884.066 158.05 891.293 161.553C898.521 165.057 904.291 169.957 908.603 176.253C912.915 182.55 915.487 189.912 916.32 198.34L895.299 198.34C894.564 193.44 892.849 189.312 890.154 185.955C887.459 182.599 884.041 180.051 879.901 178.311C875.76 176.572 871.093 175.702 865.899 175.702C860.607 175.702 855.915 176.621 851.824 178.458C847.732 180.296 844.315 182.881 841.571 186.213C838.827 189.545 836.744 193.465 835.323 197.973C833.902 202.481 833.192 207.454 833.192 212.893C833.192 218.185 833.902 223.085 835.323 227.593C836.744 232.101 838.876 236.046 841.718 239.427C844.56 242.808 848.063 245.429 852.228 247.291C856.393 249.153 861.22 250.084 866.708 250.084C874.744 250.084 881.518 248.1 887.03 244.131C892.543 240.162 895.887 234.6 897.063 227.446L918.084 227.446C917.153 235.139 914.568 242.171 910.33 248.541C906.091 254.911 900.309 259.994 892.984 263.792C885.658 267.589 876.9 269.488 866.708 269.488Z"/>
<path d="M982.397 266.695L982.397 243.028L979.016 243.028L979.016 216.715C979.016 212.158 977.889 208.74 975.635 206.462C973.381 204.183 969.926 203.044 965.271 203.044C962.821 203.044 959.881 203.093 956.451 203.191C953.021 203.289 949.567 203.412 946.088 203.559C942.609 203.706 939.497 203.877 936.753 204.073L936.753 186.727C939.007 186.531 941.543 186.347 944.36 186.176C947.178 186.004 950.093 185.882 953.107 185.808C956.12 185.735 958.95 185.698 961.596 185.698C969.779 185.698 976.602 186.788 982.066 188.969C987.529 191.149 991.645 194.543 994.414 199.149C997.182 203.755 998.567 209.782 998.567 217.23L998.567 266.695L982.397 266.695ZM956.672 268.753C950.89 268.753 945.83 267.736 941.494 265.703C937.157 263.669 933.789 260.729 931.388 256.883C928.987 253.036 927.786 248.418 927.786 243.028C927.786 237.197 929.219 232.407 932.086 228.659C934.952 224.91 939.007 222.117 944.25 220.28C949.493 218.442 955.643 217.524 962.699 217.524L981.221 217.524L981.221 229.725L962.405 229.725C957.75 229.725 954.173 230.864 951.674 233.142C949.175 235.421 947.925 238.398 947.925 242.073C947.925 245.699 949.175 248.626 951.674 250.856C954.173 253.085 957.75 254.2 962.405 254.2C965.247 254.2 967.88 253.686 970.306 252.657C972.731 251.628 974.74 249.876 976.333 247.401C977.925 244.927 978.82 241.509 979.016 237.148L984.014 242.881C983.524 248.467 982.176 253.171 979.971 256.993C977.766 260.815 974.728 263.731 970.857 265.74C966.986 267.749 962.258 268.753 956.672 268.753Z"/>
<path d="M1020.47 266.695L1020.47 186.874L1036.64 186.874L1036.64 220.684L1036.2 220.684C1036.2 209.267 1038.65 200.606 1043.55 194.702C1048.45 188.797 1055.65 185.845 1065.16 185.845L1068.1 185.845L1068.1 203.632L1062.51 203.632C1055.6 203.632 1050.27 205.482 1046.53 209.181C1042.78 212.881 1040.9 218.21 1040.9 225.168L1040.9 266.695L1020.47 266.695Z"/>
<path d="M1116.9 269.488C1110.04 269.488 1104.04 268.312 1098.89 265.96C1093.75 263.608 1089.49 260.46 1086.11 256.515C1082.72 252.571 1080.18 248.149 1078.46 243.249C1076.75 238.349 1075.89 233.326 1075.89 228.181L1075.89 225.388C1075.89 220.096 1076.75 214.988 1078.46 210.063C1080.18 205.139 1082.71 200.729 1086.07 196.833C1089.42 192.938 1093.61 189.839 1098.64 187.536C1103.66 185.233 1109.45 184.081 1116.02 184.081C1124.64 184.081 1131.86 185.98 1137.67 189.777C1143.47 193.575 1147.86 198.524 1150.82 204.624C1153.79 210.725 1155.27 217.303 1155.27 224.359L1155.27 231.783L1084.56 231.783L1084.56 219.288L1142.41 219.288L1136.16 225.388C1136.16 220.292 1135.41 215.931 1133.92 212.305C1132.42 208.679 1130.19 205.886 1127.23 203.926C1124.26 201.966 1120.53 200.986 1116.02 200.986C1111.46 200.986 1107.62 202.027 1104.48 204.11C1101.34 206.192 1098.98 209.157 1097.39 213.003C1095.79 216.85 1095 221.468 1095 226.858C1095 231.905 1095.77 236.364 1097.31 240.235C1098.86 244.106 1101.25 247.132 1104.48 249.312C1107.71 251.493 1111.85 252.583 1116.9 252.583C1121.85 252.583 1125.89 251.579 1129.03 249.57C1132.17 247.561 1134.17 245.111 1135.06 242.22L1153.87 242.22C1152.75 247.659 1150.5 252.436 1147.15 256.552C1143.79 260.668 1139.55 263.853 1134.43 266.107C1129.31 268.361 1123.47 269.488 1116.9 269.488Z"/>
<path d="M1208.04 269.488C1201.18 269.488 1195.18 268.312 1190.03 265.96C1184.89 263.608 1180.63 260.46 1177.25 256.515C1173.86 252.571 1171.32 248.149 1169.6 243.249C1167.89 238.349 1167.03 233.326 1167.03 228.181L1167.03 225.388C1167.03 220.096 1167.89 214.988 1169.6 210.063C1171.32 205.139 1173.85 200.729 1177.21 196.833C1180.56 192.938 1184.75 189.839 1189.78 187.536C1194.8 185.233 1200.59 184.081 1207.16 184.081C1215.78 184.081 1223 185.98 1228.81 189.777C1234.61 193.575 1239 198.524 1241.96 204.624C1244.93 210.725 1246.41 217.303 1246.41 224.359L1246.41 231.783L1175.7 231.783L1175.7 219.288L1233.55 219.288L1227.3 225.388C1227.3 220.292 1226.55 215.931 1225.06 212.305C1223.56 208.679 1221.33 205.886 1218.37 203.926C1215.4 201.966 1211.67 200.986 1207.16 200.986C1202.6 200.986 1198.76 202.027 1195.62 204.11C1192.48 206.192 1190.12 209.157 1188.53 213.003C1186.93 216.85 1186.14 221.468 1186.14 226.858C1186.14 231.905 1186.91 236.364 1188.45 240.235C1190 244.106 1192.39 247.132 1195.62 249.312C1198.85 251.493 1202.99 252.583 1208.04 252.583C1212.99 252.583 1217.03 251.579 1220.17 249.57C1223.31 247.561 1225.31 245.111 1226.2 242.22L1245.01 242.22C1243.89 247.659 1241.64 252.436 1238.29 256.552C1234.93 260.668 1230.69 263.853 1225.57 266.107C1220.45 268.361 1214.61 269.488 1208.04 269.488Z"/>
<path d="M1263.46 266.695L1263.46 186.874L1279.63 186.874L1279.63 220.684L1279.19 220.684C1279.19 209.267 1281.64 200.606 1286.54 194.702C1291.44 188.797 1298.64 185.845 1308.15 185.845L1311.09 185.845L1311.09 203.632L1305.5 203.632C1298.59 203.632 1293.26 205.482 1289.52 209.181C1285.77 212.881 1283.89 218.21 1283.89 225.168L1283.89 266.695L1263.46 266.695Z"/>
</g>
</g>
</svg>
